# xmcd
#
# Track frame offsets: 
#        300
#        18129
#        37650
#        55555
#        70627
#        84209
#        107629
#        126850
#        151231
#        185784
#
# Disc length: 2704 seconds
#
# Revision: 3
# Processed by: cddbd v1.5.2PL0 Copyright (c) Steve Scherf et al.
# Submitted via: ExactAudioCopy v1.0b1
#
DISCID=6c0a8c0a
DTITLE=Albert Cummings - True To Yourself
DYEAR=2004
DGENRE=General Blues
TTITLE0=Man On Your Mind
TTITLE1=Work It Out
TTITLE2=Come Up For Air
TTITLE3=Blues Makes Me Feel So Good
TTITLE4=Where Did I Go Wrong
TTITLE5=Your Sweet Love
TTITLE6=Sleep
TTITLE7=Separately
TTITLE8=Lonely Bed
TTITLE9=Follow Your Soul
EXTD=YEAR: 2004
EXTT0=
EXTT1=
EXTT2=
EXTT3=
EXTT4=
EXTT5=
EXTT6=
EXTT7=
EXTT8=
EXTT9=
PLAYORDER=
